<?xml version="1.0" encoding="UTF-8" standalone="no"?><!DOCTYPE svg PUBLIC "-//W3C//DTD SVG 1.1//EN" "http://www.w3.org/Graphics/SVG/1.1/DTD/svg11.dtd"><svg width="100%" height="100%" viewBox="0 0 24 23" version="1.1" xmlns="http://www.w3.org/2000/svg" xmlns:xlink="http://www.w3.org/1999/xlink" xml:space="preserve" xmlns:serif="http://www.serif.com/" style="fill-rule:evenodd;clip-rule:evenodd;stroke-linejoin:round;stroke-miterlimit:1.41421;"><path d="M3.011,2.439l-0.07,0.224l-0.068,0.221l-0.065,0.219l-0.061,0.216l-0.059,0.214l-0.057,0.212l-0.053,0.209l-0.051,0.206l-0.007,0.03l-0.049,0.173l-0.054,0.199l-0.051,0.198l-0.049,0.195l-0.045,0.193l-0.044,0.191l-0.04,0.189l-0.038,0.187l-0.036,0.185l-0.032,0.182l-0.03,0.181l-0.028,0.178l-0.025,0.177l-0.023,0.174l-0.02,0.173l-0.009,0.085l-0.008,0.085l-0.008,0.084l-0.007,0.084l-0.007,0.083l-0.006,0.083l-0.006,0.083l-0.005,0.081l-0.004,0.082l-0.004,0.081l-0.003,0.08l-0.002,0.08l-0.002,0.079l-0.001,0.079l-0.001,0.079l0,0.078l0,0.077l0.001,0.077l0.001,0.077l0.002,0.076l0.003,0.075l0.003,0.075l0.004,0.075l0.004,0.074l0.005,0.074l0.006,0.073l0.006,0.072l0.006,0.073l0.007,0.071l0.008,0.072l0.008,0.07l0.008,0.071l0.009,0.07l0.01,0.069l0.01,0.069l0.011,0.069l0.011,0.068l0.012,0.067l0.012,0.067l0.013,0.067l0.013,0.066l0.014,0.066l0.014,0.065l0.015,0.065l0.015,0.065l0.016,0.064l0.016,0.063l0.017,0.063l0.017,0.063l0.018,0.062l0.018,0.062l0.019,0.061l0.019,0.061l0.019,0.061l0.02,0.06l0.021,0.06l0.021,0.059l0.021,0.059l0.022,0.058l0.023,0.058l0.022,0.058l0.024,0.057l0.023,0.057l0.025,0.056l0.024,0.056l0.025,0.055l0.026,0.055l0.026,0.055l0.026,0.054l0.027,0.054l0.027,0.054l0.027,0.053l0.028,0.052l0.029,0.053l0.029,0.051l0.029,0.052l0.03,0.051l0.03,0.05l0.061,0.101l0.063,0.099l0.065,0.097l0.066,0.096l0.068,0.094l0.069,0.092l0.071,0.092l0.072,0.089l0.074,0.089l0.075,0.087l0.077,0.085l0.078,0.084l0.08,0.083l0.081,0.081l0.082,0.08l0.084,0.078l0.084,0.077l0.087,0.076l0.087,0.074l0.089,0.073l0.09,0.072l0.091,0.071l0.093,0.069l0.094,0.068l0.095,0.066l0.096,0.066l0.097,0.064l0.098,0.063l0.1,0.061l0.1,0.061l0.102,0.059l0.102,0.058l0.104,0.057l0.104,0.055l0.106,0.055l0.107,0.053l0.107,0.052l0.109,0.051l0.109,0.05l0.11,0.049l0.111,0.048l0.112,0.046l0.113,0.046l0.113,0.044l0.115,0.043l0.115,0.042l0.116,0.042l0.116,0.04l0.118,0.039l0.117,0.038l0.119,0.037l0.119,0.036l0.12,0.035l0.121,0.034l0.121,0.033l0.121,0.032l0.122,0.031l0.123,0.031l0.123,0.029l0.123,0.028l0.124,0.028l0.125,0.026l0.125,0.026l0.125,0.025l0.126,0.024l0.126,0.023l0.126,0.022l0.126,0.021l0.127,0.021l0.127,0.019l0.128,0.019l0.127,0.018l0.128,0.018l0.128,0.016l0.128,0.016l0.129,0.015l0.128,0.014l0.128,0.014l0.129,0.012l0.129,0.013l0.128,0.011l0.129,0.011l0.024,0.001l0.16,-0.694l0.19,-0.855l0.18,-0.857l0.172,-0.856l0.137,-0.713l0.018,0.006l0.107,0.033l0.108,0.032l0.109,0.031l0.108,0.031l0.109,0.031l0.042,0.012l0.063,0.031l0.223,0.1l0.22,0.098l0.221,0.096l0.158,0.067l0.064,0.034l0.224,0.115l0.224,0.113l0.224,0.11l0.224,0.108l0.225,0.105l0.224,0.103l0.223,0.1l0.222,0.097l0.222,0.095l0.219,0.092l0.096,0.039l0.123,0.059l0.217,0.102l0.215,0.098l0.212,0.096l0.21,0.093l0.207,0.09l0.203,0.087l0.201,0.085l0.196,0.081l0.193,0.078l0.188,0.076l0.184,0.072l0.179,0.07l0.174,0.067l0.169,0.063l0.163,0.061l0.158,0.058l0.151,0.055l0.286,0.101l0.258,0.089l0.23,0.077l0.2,0.065l0.167,0.053l0.133,0.042l0.098,0.03l0.04,0.011l0.04,0.013l-0.032,0.027l-0.033,0.027l-0.079,0.065l-0.11,0.088l-0.139,0.111l-0.168,0.131l-0.196,0.151l-0.223,0.169l-0.248,0.185l-0.135,0.099l-0.141,0.102l-0.147,0.105l-0.153,0.109l-0.159,0.113l-0.164,0.115l-0.171,0.118l-0.177,0.12l-0.182,0.123l-0.188,0.125l-0.193,0.128l-0.199,0.129l-0.204,0.131l-0.21,0.132l-0.215,0.134l-0.22,0.135l-0.225,0.136l-0.128,0.077l-0.102,0.054l-0.236,0.122l-0.241,0.122l-0.246,0.123l-0.25,0.123l-0.255,0.122l-0.259,0.122l-0.264,0.121l-0.268,0.12l-0.273,0.12l-0.277,0.118l-0.082,0.034l-0.199,0.065l-0.286,0.091l-0.289,0.088l-0.288,0.087l-0.092,0.026l-0.06,0.008l-0.148,0.021l-0.148,0.02l-0.15,0.019l-0.15,0.019l-0.151,0.018l-0.025,0.003l-0.079,-0.726l-0.086,-0.874l-0.079,-0.875l-0.069,-0.875l-0.05,-0.712l-0.025,-0.002l-0.131,-0.012l-0.13,-0.013l-0.13,-0.013l-0.131,-0.014l-0.13,-0.015l-0.131,-0.016l-0.13,-0.016l-0.13,-0.018l-0.13,-0.018l-0.13,-0.018l-0.129,-0.02l-0.13,-0.02l-0.129,-0.022l-0.129,-0.022l-0.129,-0.023l-0.128,-0.023l-0.128,-0.025l-0.128,-0.026l-0.128,-0.026l-0.127,-0.027l-0.126,-0.029l-0.127,-0.029l-0.126,-0.03l-0.125,-0.031l-0.125,-0.032l-0.125,-0.033l-0.124,-0.034l-0.123,-0.035l-0.123,-0.036l-0.122,-0.037l-0.122,-0.038l-0.121,-0.039l-0.121,-0.04l-0.12,-0.041l-0.119,-0.042l-0.118,-0.044l-0.118,-0.044l-0.117,-0.046l-0.116,-0.046l-0.116,-0.048l-0.115,-0.049l-0.114,-0.05l-0.113,-0.051l-0.112,-0.053l-0.111,-0.053l-0.111,-0.055l-0.109,-0.056l-0.109,-0.057l-0.107,-0.059l-0.107,-0.06l-0.105,-0.061l-0.105,-0.062l-0.103,-0.063l-0.103,-0.065l-0.101,-0.066l-0.1,-0.068l-0.099,-0.068l-0.098,-0.07l-0.097,-0.072l-0.095,-0.073l-0.095,-0.074l-0.093,-0.075l-0.091,-0.077l-0.091,-0.078l-0.089,-0.08l-0.088,-0.081l-0.086,-0.083l-0.085,-0.084l-0.084,-0.085l-0.082,-0.087l-0.08,-0.089l-0.08,-0.089l-0.077,-0.092l-0.076,-0.093l-0.075,-0.094l-0.073,-0.096l-0.072,-0.097l-0.069,-0.099l-0.069,-0.101l-0.066,-0.102l-0.065,-0.103l-0.063,-0.105l-0.031,-0.054l-0.031,-0.053l-0.03,-0.054l-0.029,-0.055l-0.029,-0.055l-0.029,-0.055l-0.028,-0.055l-0.028,-0.056l-0.028,-0.057l-0.027,-0.056l-0.026,-0.058l-0.026,-0.057l-0.025,-0.058l-0.026,-0.059l-0.024,-0.058l-0.024,-0.06l-0.024,-0.059l-0.023,-0.06l-0.023,-0.061l-0.022,-0.061l-0.022,-0.061l-0.021,-0.061l-0.021,-0.063l-0.02,-0.062l-0.02,-0.063l-0.019,-0.063l-0.019,-0.064l-0.018,-0.064l-0.017,-0.065l-0.018,-0.065l-0.016,-0.066l-0.017,-0.066l-0.015,-0.066l-0.015,-0.067l-0.015,-0.067l-0.014,-0.067l-0.014,-0.068l-0.013,-0.069l-0.012,-0.069l-0.012,-0.069l-0.012,-0.07l-0.011,-0.07l-0.01,-0.071l-0.01,-0.071l-0.009,-0.071l-0.009,-0.072l-0.008,-0.073l-0.008,-0.073l-0.007,-0.073l-0.007,-0.074l-0.005,-0.074l-0.006,-0.075l-0.005,-0.075l-0.004,-0.075l-0.004,-0.076l-0.003,-0.077l-0.002,-0.077l-0.002,-0.077l-0.002,-0.078l-0.001,-0.078l0,-0.079l0,-0.079l0.001,-0.08l0.002,-0.08l0.002,-0.08l0.003,-0.082l0.003,-0.081l0.004,-0.082l0.004,-0.083l0.006,-0.082l0.005,-0.084l0.007,-0.084l0.007,-0.084l0.007,-0.085l0.008,-0.085l0.009,-0.086l0.01,-0.086l0.01,-0.087l0.022,-0.175l0.024,-0.177l0.027,-0.179l0.03,-0.181l0.032,-0.182l0.035,-0.185l0.038,-0.187l0.04,-0.189l0.042,-0.19l0.046,-0.193l0.048,-0.195l0.051,-0.197l0.054,-0.199l0.056,-0.201l0.051,-0.174l0.01,-0.029l0.07,-0.203l0.074,-0.204l0.077,-0.206l0.08,-0.209l0.082,-0.21l0.086,-0.212l0.088,-0.214l0.092,-0.217l0.094,-0.218l-0.073,0.226Z" style="fill-opacity:0.6;"/></svg>