<?xml version="1.0" encoding="UTF-8" standalone="no"?><!DOCTYPE svg PUBLIC "-//W3C//DTD SVG 1.1//EN" "http://www.w3.org/Graphics/SVG/1.1/DTD/svg11.dtd"><svg width="100%" height="100%" viewBox="0 0 24 23" version="1.1" xmlns="http://www.w3.org/2000/svg" xmlns:xlink="http://www.w3.org/1999/xlink" xml:space="preserve" xmlns:serif="http://www.serif.com/" style="fill-rule:evenodd;clip-rule:evenodd;stroke-linejoin:round;stroke-miterlimit:1.41421;"><path d="M3.706,2.237l0.011,0.021l0.031,0.055l0.044,0.075l0.056,0.094l0.068,0.114l0.08,0.13l0.092,0.148l0.104,0.163l0.116,0.179l0.128,0.192l0.139,0.206l0.074,0.106l0.076,0.111l0.08,0.113l0.082,0.115l0.086,0.119l0.088,0.12l0.09,0.123l0.094,0.125l0.096,0.128l0.099,0.129l0.057,0.073l0.043,0.059l0.099,0.134l0.102,0.136l0.105,0.137l0.107,0.139l0.11,0.14l0.113,0.142l0.114,0.142l0.118,0.144l0.119,0.144l0.054,0.064l0.064,0.083l0.115,0.149l0.118,0.15l0.096,0.119l-0.148,0.099l-0.735,0.497l-0.591,0.412l0.013,0.037l0.068,0.191l0.07,0.193l0.072,0.193l0.075,0.195l0.077,0.197l0.079,0.197l0.081,0.198l0.084,0.2l0.036,0.082l0.056,0.115l0.098,0.196l0.101,0.197l0.103,0.197l0.105,0.197l0.109,0.197l0.11,0.198l0.057,0.098l0.057,0.099l0.057,0.099l0.058,0.098l0.059,0.099l0.06,0.099l0.06,0.098l0.061,0.099l0.062,0.098l0.062,0.098l0.063,0.098l0.063,0.098l0.065,0.098l0.065,0.098l0.065,0.097l0.067,0.098l0.067,0.097l0.067,0.097l0.069,0.097l0.069,0.096l0.07,0.096l0.07,0.096l0.072,0.096l0.072,0.096l0.072,0.095l0.074,0.095l0.074,0.095l0.075,0.094l0.076,0.094l0.076,0.094l0.077,0.093l0.078,0.093l0.079,0.093l0.079,0.092l0.08,0.092l0.081,0.091l0.081,0.091l0.083,0.091l0.083,0.09l0.084,0.09l0.085,0.089l0.085,0.089l0.086,0.088l0.088,0.088l0.087,0.087l0.089,0.087l0.089,0.086l0.091,0.086l0.091,0.085l0.091,0.084l0.093,0.084l0.094,0.084l0.094,0.083l0.095,0.082l0.096,0.081l0.042,0.036l0.055,0.045l0.097,0.08l0.099,0.08l0.099,0.078l0.1,0.079l0.101,0.077l0.102,0.077l0.102,0.076l0.104,0.075l0.104,0.075l0.105,0.073l0.106,0.073l0.107,0.073l0.108,0.071l0.109,0.071l0.109,0.07l0.111,0.069l0.111,0.068l0.112,0.067l0.113,0.067l0.114,0.065l0.115,0.065l0.116,0.064l0.116,0.063l0.118,0.062l0.118,0.061l0.12,0.06l0.12,0.059l0.121,0.058l0.122,0.057l0.123,0.057l0.124,0.055l0.125,0.054l0.126,0.053l0.126,0.052l0.128,0.052l0.129,0.05l0.129,0.049l0.131,0.048l0.131,0.046l0.133,0.046l0.133,0.045l0.135,0.043l0.135,0.043l0.136,0.041l0.138,0.04l0.138,0.039l0.139,0.037l0.14,0.037l0.142,0.035l0.142,0.034l0.143,0.033l0.144,0.032l0.146,0.03l0.146,0.029l0.147,0.028l0.148,0.026l0.15,0.025l0.15,0.024l0.137,0.021l0.014,0.002l0.152,0.025l0.153,0.024l0.154,0.022l0.155,0.021l0.157,0.019l0.157,0.019l0.158,0.017l0.16,0.015l0.161,0.014l0.162,0.013l0.163,0.011l-0.164,-0.003l-0.162,-0.004l-0.162,-0.005l-0.16,-0.007l-0.16,-0.009l-0.158,-0.009l-0.158,-0.012l-0.157,-0.012l-0.155,-0.014l-0.155,-0.016l-0.154,-0.017l-0.014,-0.002l-0.138,-0.02l-0.151,-0.023l-0.151,-0.025l-0.149,-0.026l-0.148,-0.027l-0.148,-0.029l-0.146,-0.03l-0.145,-0.031l-0.145,-0.032l-0.143,-0.034l-0.142,-0.035l-0.142,-0.036l-0.14,-0.037l-0.139,-0.039l-0.139,-0.039l-0.137,-0.041l-0.137,-0.042l-0.135,-0.044l-0.135,-0.044l-0.133,-0.046l-0.133,-0.046l-0.132,-0.048l-0.131,-0.049l-0.129,-0.05l-0.129,-0.051l-0.128,-0.052l-0.127,-0.053l-0.126,-0.054l-0.125,-0.055l-0.125,-0.056l-0.123,-0.057l-0.122,-0.058l-0.122,-0.06l-0.12,-0.06l-0.12,-0.061l-0.119,-0.062l-0.118,-0.063l-0.117,-0.064l-0.116,-0.064l-0.115,-0.066l-0.114,-0.066l-0.113,-0.068l-0.113,-0.068l-0.111,-0.069l-0.111,-0.07l-0.11,-0.071l-0.109,-0.071l-0.108,-0.073l-0.107,-0.073l-0.107,-0.074l-0.105,-0.075l-0.105,-0.075l-0.104,-0.076l-0.103,-0.077l-0.102,-0.078l-0.101,-0.078l-0.1,-0.079l-0.1,-0.08l-0.099,-0.081l-0.055,-0.045l-0.043,-0.036l-0.097,-0.081l-0.096,-0.082l-0.096,-0.083l-0.094,-0.084l-0.094,-0.084l-0.093,-0.085l-0.092,-0.085l-0.092,-0.086l-0.091,-0.086l-0.089,-0.087l-0.089,-0.088l-0.089,-0.088l-0.087,-0.088l-0.087,-0.089l-0.086,-0.09l-0.085,-0.09l-0.084,-0.09l-0.084,-0.091l-0.083,-0.091l-0.082,-0.092l-0.081,-0.092l-0.08,-0.093l-0.08,-0.092l-0.079,-0.094l-0.078,-0.093l-0.078,-0.094l-0.077,-0.095l-0.076,-0.094l-0.075,-0.095l-0.075,-0.096l-0.073,-0.095l-0.074,-0.096l-0.072,-0.096l-0.072,-0.097l-0.07,-0.096l-0.071,-0.097l-0.069,-0.097l-0.069,-0.098l-0.068,-0.097l-0.068,-0.098l-0.066,-0.098l-0.066,-0.098l-0.066,-0.098l-0.064,-0.099l-0.064,-0.098l-0.063,-0.099l-0.063,-0.098l-0.062,-0.099l-0.061,-0.099l-0.061,-0.099l-0.06,-0.099l-0.059,-0.099l-0.058,-0.099l-0.058,-0.099l-0.058,-0.099l-0.112,-0.199l-0.11,-0.198l-0.108,-0.198l-0.105,-0.197l-0.102,-0.198l-0.1,-0.197l-0.057,-0.115l-0.045,-0.079l-0.104,-0.191l-0.103,-0.191l-0.1,-0.19l-0.097,-0.189l-0.096,-0.188l-0.092,-0.187l-0.091,-0.187l-0.089,-0.185l-0.017,-0.036l-0.713,0.112l-0.883,0.127l-0.177,0.025l-0.018,-0.173l-0.021,-0.214l-0.02,-0.211l-0.009,-0.117l-0.004,-0.093l-0.007,-0.208l-0.006,-0.205l-0.004,-0.201l-0.002,-0.198l-0.001,-0.195l0,-0.191l0.001,-0.187l0.003,-0.184l0.003,-0.18l0.002,-0.078l0.005,-0.099l0.01,-0.173l0.011,-0.17l0.012,-0.165l0.012,-0.161l0.013,-0.157l0.013,-0.153l0.014,-0.148l0.014,-0.144l0.014,-0.139l0.015,-0.136l0.029,-0.255l0.03,-0.236l0.03,-0.217l0.028,-0.196l0.027,-0.176l0.025,-0.154l0.023,-0.132l0.019,-0.109l0.016,-0.086l0.012,-0.062l0.005,-0.024l0.006,-0.027l0.014,0.024Z" style="fill-opacity:0.6;"/></svg>