<?xml version="1.0" encoding="UTF-8" standalone="no"?><!DOCTYPE svg PUBLIC "-//W3C//DTD SVG 1.1//EN" "http://www.w3.org/Graphics/SVG/1.1/DTD/svg11.dtd"><svg width="100%" height="100%" viewBox="0 0 24 23" version="1.1" xmlns="http://www.w3.org/2000/svg" xmlns:xlink="http://www.w3.org/1999/xlink" xml:space="preserve" xmlns:serif="http://www.serif.com/" style="fill-rule:evenodd;clip-rule:evenodd;stroke-linejoin:round;stroke-miterlimit:1.41421;"><path d="M20.534,2.548l0.003,0.036l0.006,0.08l0.008,0.109l0.009,0.139l0.01,0.168l0.01,0.194l0.01,0.22l0.01,0.246l0.008,0.27l0.007,0.292l0.003,0.156l0.002,0.16l0.001,0.166l0.001,0.171l0,0.176l-0.001,0.181l-0.001,0.186l-0.003,0.191l-0.004,0.195l-0.003,0.143l-0.003,0.057l-0.01,0.203l-0.012,0.207l-0.013,0.211l-0.014,0.215l-0.016,0.219l-0.017,0.223l-0.019,0.226l-0.021,0.23l-0.02,0.21l-0.003,0.023l-0.033,0.234l-0.034,0.236l-0.037,0.24l-0.001,0.009l-0.819,-0.085l-0.787,-0.091l-0.008,0.017l-0.099,0.212l-0.102,0.213l-0.104,0.215l-0.107,0.215l-0.109,0.217l-0.111,0.217l-0.113,0.217l-0.116,0.218l-0.008,0.014l-0.102,0.208l-0.112,0.223l-0.114,0.223l-0.116,0.223l-0.119,0.223l-0.06,0.112l-0.061,0.111l-0.062,0.112l-0.062,0.111l-0.063,0.111l-0.063,0.111l-0.064,0.11l-0.065,0.111l-0.065,0.11l-0.066,0.11l-0.067,0.11l-0.067,0.11l-0.067,0.109l-0.069,0.109l-0.069,0.109l-0.07,0.109l-0.07,0.108l-0.071,0.108l-0.071,0.107l-0.072,0.107l-0.073,0.107l-0.074,0.106l-0.074,0.106l-0.075,0.105l-0.075,0.105l-0.076,0.105l-0.077,0.104l-0.077,0.103l-0.078,0.103l-0.079,0.102l-0.079,0.102l-0.08,0.101l-0.081,0.101l-0.081,0.1l-0.082,0.099l-0.083,0.099l-0.083,0.098l-0.084,0.097l-0.085,0.096l-0.086,0.096l-0.086,0.095l-0.086,0.095l-0.088,0.093l-0.088,0.093l-0.089,0.092l-0.089,0.091l-0.09,0.091l-0.091,0.089l-0.092,0.089l-0.092,0.087l-0.093,0.087l-0.093,0.086l-0.095,0.085l-0.095,0.084l-0.095,0.083l-0.097,0.082l-0.097,0.08l-0.098,0.08l-0.098,0.079l-0.024,0.019l-0.075,0.059l-0.1,0.077l-0.101,0.075l-0.101,0.075l-0.102,0.073l-0.103,0.073l-0.103,0.071l-0.105,0.07l-0.104,0.068l-0.106,0.068l-0.107,0.066l-0.107,0.065l-0.107,0.064l-0.109,0.062l-0.109,0.061l-0.11,0.06l-0.111,0.059l-0.112,0.057l-0.112,0.056l-0.113,0.054l-0.114,0.053l-0.114,0.051l-0.115,0.05l-0.116,0.049l-0.117,0.047l-0.118,0.046l-0.118,0.044l-0.119,0.042l-0.119,0.041l-0.121,0.04l-0.121,0.038l-0.122,0.036l-0.123,0.034l-0.123,0.034l-0.125,0.031l-0.125,0.03l-0.126,0.028l-0.126,0.026l-0.128,0.024l-0.128,0.023l-0.128,0.021l-0.13,0.02l-0.131,0.017l-0.131,0.016l-0.132,0.014l-0.132,0.012l-0.134,0.01l-0.134,0.009l-0.135,0.006l-0.136,0.005l-0.137,0.002l-0.137,0.001l-0.138,-0.001l-0.139,-0.004l-0.14,-0.005l-0.141,-0.007l-0.141,-0.01l-0.142,-0.011l-0.143,-0.013l-0.144,-0.016l-0.144,-0.017l-0.146,-0.02l-0.146,-0.022l-0.147,-0.024l-0.147,-0.026l-0.149,-0.028l-0.149,-0.03l-0.031,-0.007l-0.119,-0.028l-0.15,-0.038l-0.151,-0.04l-0.152,-0.043l-0.152,-0.045l-0.153,-0.047l-0.154,-0.049l-0.154,-0.052l-0.156,-0.054l-0.156,-0.056l-0.156,-0.059l-0.158,-0.061l0.16,0.054l0.159,0.052l0.158,0.049l0.157,0.047l0.157,0.045l0.155,0.043l0.155,0.04l0.153,0.037l0.153,0.036l0.151,0.033l0.151,0.031l0.119,0.023l0.031,0.007l0.148,0.03l0.148,0.027l0.146,0.026l0.146,0.023l0.145,0.021l0.144,0.019l0.144,0.017l0.142,0.015l0.142,0.012l0.141,0.011l0.14,0.009l0.14,0.007l0.138,0.004l0.138,0.003l0.137,0.001l0.136,-0.001l0.135,-0.003l0.135,-0.005l0.133,-0.007l0.133,-0.009l0.133,-0.011l0.131,-0.012l0.13,-0.014l0.13,-0.016l0.129,-0.018l0.128,-0.02l0.128,-0.021l0.127,-0.023l0.126,-0.025l0.125,-0.026l0.124,-0.028l0.124,-0.03l0.122,-0.032l0.122,-0.033l0.122,-0.034l0.12,-0.037l0.12,-0.037l0.119,-0.04l0.118,-0.041l0.118,-0.042l0.117,-0.044l0.116,-0.046l0.115,-0.047l0.115,-0.048l0.113,-0.05l0.114,-0.052l0.112,-0.052l0.111,-0.054l0.111,-0.056l0.11,-0.057l0.11,-0.058l0.109,-0.06l0.108,-0.061l0.107,-0.062l0.106,-0.063l0.106,-0.065l0.105,-0.066l0.105,-0.067l0.103,-0.068l0.103,-0.07l0.102,-0.071l0.102,-0.072l0.101,-0.073l0.1,-0.074l0.099,-0.075l0.099,-0.077l0.074,-0.058l0.024,-0.019l0.097,-0.079l0.097,-0.079l0.096,-0.081l0.095,-0.082l0.094,-0.082l0.094,-0.084l0.093,-0.084l0.092,-0.086l0.092,-0.086l0.091,-0.088l0.091,-0.088l0.089,-0.089l0.089,-0.09l0.089,-0.091l0.087,-0.092l0.087,-0.092l0.086,-0.093l0.086,-0.094l0.085,-0.095l0.084,-0.096l0.084,-0.096l0.083,-0.097l0.082,-0.098l0.082,-0.098l0.081,-0.099l0.08,-0.099l0.08,-0.101l0.079,-0.1l0.078,-0.102l0.078,-0.102l0.077,-0.102l0.076,-0.103l0.076,-0.104l0.075,-0.104l0.074,-0.105l0.074,-0.105l0.073,-0.105l0.073,-0.106l0.072,-0.107l0.071,-0.106l0.071,-0.107l0.07,-0.108l0.069,-0.108l0.069,-0.108l0.068,-0.108l0.067,-0.109l0.067,-0.109l0.066,-0.11l0.066,-0.109l0.065,-0.11l0.064,-0.11l0.064,-0.11l0.063,-0.111l0.063,-0.11l0.062,-0.111l0.061,-0.111l0.061,-0.111l0.06,-0.111l0.059,-0.111l0.118,-0.222l0.114,-0.223l0.113,-0.222l0.11,-0.223l0.1,-0.207l0.007,-0.015l0.096,-0.226l0.094,-0.225l0.092,-0.224l0.089,-0.223l0.088,-0.222l0.085,-0.221l0.082,-0.22l0.081,-0.218l0.006,-0.017l-0.626,-0.483l-0.653,-0.493l0.005,-0.007l0.13,-0.18l0.128,-0.18l0.125,-0.178l0.012,-0.018l0.118,-0.157l0.129,-0.173l0.126,-0.171l0.123,-0.17l0.12,-0.168l0.118,-0.166l0.115,-0.164l0.112,-0.162l0.11,-0.16l0.03,-0.045l0.079,-0.111l0.108,-0.153l0.105,-0.15l0.102,-0.148l0.098,-0.144l0.096,-0.141l0.092,-0.137l0.089,-0.134l0.086,-0.131l0.083,-0.126l0.155,-0.241l0.141,-0.224l0.128,-0.205l0.113,-0.185l0.1,-0.165l0.084,-0.142l0.07,-0.119l0.055,-0.095l0.039,-0.069l0.018,-0.032l0.014,-0.025l0.003,0.029Z" style="fill-opacity:0.6;"/></svg>